<svg width="40" height="40" viewBox="0 0 40 40" fill="none" xmlns="http://www.w3.org/2000/svg">



<g id="facebook" clip-path="url(#clip0_1_121)">
<path id="Vector" d="M20 0.799927C9.39599 0.799927 0.799988 9.39593 0.799988 19.9999C0.799988 30.6039 9.39599 39.1999 20 39.1999C30.604 39.1999 39.2 30.6039 39.2 19.9999C39.2 9.39593 30.604 0.799927 20 0.799927ZM24.548 14.0679H21.662C21.32 14.0679 20.94 14.5179 20.94 15.1159V17.1999H24.55L24.004 20.1719H20.94V29.0939H17.534V20.1719H14.444V17.1999H17.534V15.4519C17.534 12.9439 19.274 10.9059 21.662 10.9059H24.548V14.0679Z" fill="currentColor"/>
</g>

<g id="instagram" clip-path="url(#clip0_1_125)">
<path id="Vector" d="M26 19.9999C26 21.5912 25.3679 23.1174 24.2426 24.2426C23.1174 25.3678 21.5913 25.9999 20 25.9999C18.4087 25.9999 16.8826 25.3678 15.7574 24.2426C14.6321 23.1174 14 21.5912 14 19.9999C14 19.6579 14.036 19.3239 14.098 18.9999H12V26.9939C12 27.5499 12.45 27.9999 13.006 27.9999H26.996C27.2625 27.9994 27.5178 27.8932 27.7061 27.7046C27.8943 27.516 28 27.2604 28 26.9939V18.9999H25.902C25.964 19.3239 26 19.6579 26 19.9999ZM20 23.9999C20.5254 23.9998 21.0457 23.8962 21.531 23.695C22.0164 23.4938 22.4574 23.199 22.8288 22.8274C23.2003 22.4557 23.4949 22.0146 23.6958 21.5291C23.8968 21.0436 24.0001 20.5233 24 19.9979C23.9999 19.4725 23.8962 18.9523 23.6951 18.4669C23.4939 17.9815 23.199 17.5405 22.8274 17.1691C22.4558 16.7977 22.0147 16.503 21.5292 16.3021C21.0437 16.1012 20.5234 15.9978 19.998 15.9979C18.9369 15.9982 17.9193 16.42 17.1692 17.1705C16.419 17.921 15.9977 18.9388 15.998 19.9999C15.9983 21.0611 16.42 22.0786 17.1706 22.8288C17.9211 23.5789 18.9389 24.0002 20 23.9999ZM24.8 15.7999H27.198C27.3573 15.7999 27.5101 15.7368 27.623 15.6243C27.7358 15.5118 27.7995 15.3592 27.8 15.1999V12.8019C27.8 12.6423 27.7366 12.4891 27.6237 12.3762C27.5108 12.2634 27.3577 12.1999 27.198 12.1999H24.8C24.6403 12.1999 24.4872 12.2634 24.3743 12.3762C24.2614 12.4891 24.198 12.6423 24.198 12.8019V15.1999C24.2 15.5299 24.47 15.7999 24.8 15.7999ZM20 0.799927C14.9078 0.799927 10.0242 2.82278 6.42354 6.42348C2.82284 10.0242 0.799994 14.9078 0.799994 19.9999C0.799994 25.0921 2.82284 29.9757 6.42354 33.5764C10.0242 37.1771 14.9078 39.1999 20 39.1999C22.5214 39.1999 25.0181 38.7033 27.3475 37.7384C29.677 36.7735 31.7936 35.3593 33.5764 33.5764C35.3593 31.7935 36.7736 29.6769 37.7385 27.3475C38.7034 25.018 39.2 22.5213 39.2 19.9999C39.2 17.4785 38.7034 14.9819 37.7385 12.6524C36.7736 10.323 35.3593 8.20636 33.5764 6.42348C31.7936 4.64059 29.677 3.22633 27.3475 2.26144C25.0181 1.29655 22.5214 0.799927 20 0.799927ZM30 27.7779C30 28.9999 29 29.9999 27.778 29.9999H12.222C11 29.9999 9.99999 28.9999 9.99999 27.7779V12.2219C9.99999 10.9999 11 9.99993 12.222 9.99993H27.778C29 9.99993 30 10.9999 30 12.2219V27.7779Z" fill="currentColor"/>
</g>

<g id="pinterest" clip-path="url(#clip0_1_129)">
<path id="Vector" d="M20 0.799927C9.396 0.799927 0.800003 9.39593 0.800003 19.9999C0.800003 30.6039 9.396 39.1999 20 39.1999C30.604 39.1999 39.2 30.6039 39.2 19.9999C39.2 9.39593 30.604 0.799927 20 0.799927ZM21.314 24.5499C20.082 24.4559 19.566 23.8459 18.602 23.2619C18.072 26.0439 17.424 28.7119 15.504 30.1059C14.91 25.8979 16.372 22.7419 17.052 19.3879C15.894 17.4379 17.19 13.5159 19.634 14.4799C22.64 15.6719 17.03 21.7299 20.796 22.4879C24.728 23.2759 26.334 15.6639 23.896 13.1919C20.372 9.61793 13.642 13.1099 14.47 18.2259C14.67 19.4759 15.964 19.8559 14.986 21.5819C12.732 21.0819 12.058 19.3039 12.146 16.9339C12.284 13.0539 15.632 10.3359 18.988 9.96193C23.234 9.48993 27.218 11.5199 27.77 15.5159C28.388 20.0239 25.852 24.9019 21.314 24.5499Z" fill="currentColor"/>
</g>

<g id="twitter" clip-path="url(#clip0_1_123)">
<path id="Vector" d="M20 0.799927C9.396 0.799927 0.799995 9.39593 0.799995 19.9999C0.799995 30.6039 9.396 39.1999 20 39.1999C30.604 39.1999 39.2 30.6039 39.2 19.9999C39.2 9.39593 30.604 0.799927 20 0.799927ZM27.81 16.5279C27.818 16.6919 27.82 16.8559 27.82 17.0159C27.82 22.0159 24.018 27.7779 17.062 27.7779C15.0066 27.7813 12.9939 27.191 11.266 26.0779C11.56 26.1139 11.862 26.1279 12.168 26.1279C13.94 26.1279 15.57 25.5259 16.864 24.5099C16.0754 24.4944 15.3113 24.2333 14.6782 23.763C14.0451 23.2926 13.5745 22.6364 13.332 21.8859C13.8983 21.9936 14.4817 21.971 15.038 21.8199C14.1821 21.6469 13.4124 21.1831 12.8594 20.5073C12.3064 19.8314 12.0042 18.9852 12.004 18.1119V18.0659C12.514 18.3479 13.098 18.5199 13.718 18.5399C12.9156 18.0058 12.3476 17.1853 12.1301 16.2462C11.9126 15.3071 12.0621 14.3204 12.548 13.4879C13.4979 14.6559 14.6825 15.6114 16.0251 16.2925C17.3677 16.9737 18.8384 17.3653 20.342 17.4419C20.1508 16.6305 20.2331 15.7787 20.576 15.0189C20.9189 14.2591 21.5032 13.6339 22.2381 13.2405C22.973 12.847 23.8173 12.7074 24.6398 12.8433C25.4622 12.9792 26.2167 13.383 26.786 13.9919C27.6323 13.8245 28.444 13.514 29.186 13.0739C28.9039 13.9502 28.3133 14.6943 27.524 15.1679C28.2737 15.0776 29.0057 14.8761 29.696 14.5699C29.189 15.3297 28.5503 15.9928 27.81 16.5279Z" fill="currentColor"/>
</g>

<g id="youtube" clip-path="url(#clip0_1_127)">
<path id="Vector" d="M23.206 19.6659L18.714 17.5699C18.322 17.3879 18 17.5919 18 18.0259V21.9739C18 22.4079 18.322 22.6119 18.714 22.4299L23.204 20.3339C23.598 20.1499 23.598 19.8499 23.206 19.6659ZM20 0.799927C9.396 0.799927 0.799995 9.39593 0.799995 19.9999C0.799995 30.6039 9.396 39.1999 20 39.1999C30.604 39.1999 39.2 30.6039 39.2 19.9999C39.2 9.39593 30.604 0.799927 20 0.799927ZM20 27.7999C10.172 27.7999 10 26.9139 10 19.9999C10 13.0859 10.172 12.1999 20 12.1999C29.828 12.1999 30 13.0859 30 19.9999C30 26.9139 29.828 27.7999 20 27.7999Z" fill="currentColor"/>
</g>

<g id="logo">
<path d="M12.3428 11.2344C12.3545 11.4102 12.3193 11.5801 12.2373 11.7441C12.167 11.9082 12.1025 12.0547 12.0439 12.1836L11.4814 12.7812L11.1475 13.7832C11.0186 13.877 10.8779 13.9707 10.7256 14.0645C10.585 14.1465 10.4561 14.2344 10.3389 14.3281C10.21 14.4336 10.0928 14.5508 9.9873 14.6797C9.89355 14.8086 9.78809 14.9199 9.6709 15.0137C9.55371 15.1074 9.41309 15.1895 9.24902 15.2598C9.09668 15.3184 8.95605 15.3887 8.82715 15.4707C8.59277 15.6113 8.37012 15.7578 8.15918 15.9102C7.95996 16.0625 7.74902 16.209 7.52637 16.3496C7.46777 16.373 7.4209 16.4023 7.38574 16.4375C7.3623 16.4609 7.32129 16.4844 7.2627 16.5078C7.22754 16.5312 7.0752 16.5781 6.80566 16.6484C6.53613 16.7188 6.2373 16.8008 5.90918 16.8945C5.59277 16.9766 5.29395 17.0527 5.0127 17.123C4.73145 17.1934 4.57324 17.2285 4.53809 17.2285C4.32715 17.252 4.11035 17.2637 3.8877 17.2637C3.66504 17.2637 3.44238 17.2695 3.21973 17.2812L2.95605 17.4395C2.82715 17.3457 2.68652 17.2578 2.53418 17.1758C2.38184 17.0938 2.25293 17.0059 2.14746 16.9121C2.03027 16.8066 1.91309 16.6895 1.7959 16.5605C1.67871 16.4199 1.57324 16.291 1.47949 16.1738C1.4209 16.0098 1.3623 15.8516 1.30371 15.6992C1.24512 15.5352 1.19824 15.377 1.16309 15.2246L1.0752 14.5566C1.05176 14.334 1.02832 14.1172 1.00488 13.9062C0.993164 13.6953 0.975586 13.4785 0.952148 13.2559C1.15137 12.7051 1.32715 12.1543 1.47949 11.6035C1.64355 11.041 1.84277 10.4902 2.07715 9.95117C2.13574 9.82227 2.18848 9.69336 2.23535 9.56445C2.29395 9.42383 2.35254 9.28906 2.41113 9.16016C2.48145 9.01953 2.55762 8.89062 2.63965 8.77344C2.72168 8.64453 2.79199 8.51562 2.85059 8.38672C2.90918 8.24609 2.95605 8.10547 2.99121 7.96484C3.02637 7.8125 3.07324 7.67188 3.13184 7.54297C3.16699 7.47266 3.22559 7.37305 3.30762 7.24414C3.38965 7.10352 3.47754 6.96289 3.57129 6.82227C3.66504 6.66992 3.75293 6.52344 3.83496 6.38281C3.92871 6.24219 4.00488 6.13086 4.06348 6.04883C4.15723 5.93164 4.25098 5.82031 4.34473 5.71484C4.43848 5.60938 4.51465 5.49219 4.57324 5.36328C4.69043 5.16406 4.80176 4.91211 4.90723 4.60742C5.0127 4.30273 5.12988 4.0332 5.25879 3.79883C5.39941 3.54102 5.56348 3.30078 5.75098 3.07812C5.9502 2.84375 6.13184 2.60352 6.2959 2.35742C6.47168 2.11133 6.6416 1.8418 6.80566 1.54883L7.5791 0.986328L7.93066 1.33789L8.77441 1.19727L9.30176 1.98828C9.27832 2.16406 9.24902 2.36328 9.21387 2.58594C9.19043 2.80859 9.16699 3.03711 9.14355 3.27148C9.13184 3.49414 9.12012 3.7168 9.1084 3.93945C9.1084 4.15039 9.12012 4.33789 9.14355 4.50195C9.08496 4.71289 8.99707 4.93555 8.87988 5.16992C8.77441 5.39258 8.65137 5.58594 8.51074 5.75L8.44043 6.69922L7.7373 7.33203L7.64941 8.22852L7.05176 8.93164C7.0166 9.0957 6.98145 9.26562 6.94629 9.44141C6.91113 9.60547 6.86426 9.76367 6.80566 9.91602C6.74707 10.0566 6.67676 10.2031 6.59473 10.3555C6.5127 10.4961 6.43066 10.6426 6.34863 10.7949C6.11426 10.9941 5.87402 11.2168 5.62793 11.4629C5.38184 11.709 5.15918 11.9551 4.95996 12.2012C4.85449 12.3301 4.75488 12.4707 4.66113 12.623C4.5791 12.7637 4.49121 12.8984 4.39746 13.0273C4.09277 13.4141 3.76465 13.7773 3.41309 14.1172C3.06152 14.457 2.71582 14.8086 2.37598 15.1719L2.7627 15.8574C3.00879 15.9395 3.26074 16.0156 3.51855 16.0859C3.77637 16.1562 4.03418 16.2207 4.29199 16.2793C4.40918 16.2559 4.54395 16.2324 4.69629 16.209C4.84863 16.1738 5.00684 16.1387 5.1709 16.1035C5.33496 16.0566 5.49316 16.0098 5.64551 15.9629C5.80957 15.916 5.94434 15.8691 6.0498 15.8223C6.28418 15.7285 6.55371 15.5938 6.8584 15.418C7.16309 15.2305 7.4209 15.0664 7.63184 14.9258C8.00684 14.6914 8.3877 14.4512 8.77441 14.2051C9.16113 13.959 9.53027 13.7012 9.88184 13.4316C10.1162 13.2559 10.3623 13.0332 10.6201 12.7637C10.8779 12.4941 11.1182 12.2422 11.3408 12.0078C11.5752 11.7617 11.7803 11.5625 11.9561 11.4102C12.1436 11.2578 12.2725 11.1992 12.3428 11.2344ZM7.56152 2.91992C7.31543 3.33008 7.05176 3.72852 6.77051 4.11523C6.50098 4.49023 6.24902 4.88281 6.01465 5.29297C5.93262 5.43359 5.8623 5.58008 5.80371 5.73242C5.74512 5.87305 5.66895 6.01367 5.5752 6.1543C5.49316 6.2832 5.40527 6.41211 5.31152 6.54102C5.21777 6.66992 5.13574 6.81055 5.06543 6.96289C4.9248 7.23242 4.7959 7.51953 4.67871 7.82422C4.57324 8.11719 4.45605 8.4043 4.32715 8.68555C4.18652 8.9668 4.02246 9.23047 3.83496 9.47656C3.64746 9.72266 3.47754 9.98633 3.3252 10.2676L3.04395 10.8301C3.02051 10.8887 2.99707 10.9355 2.97363 10.9707C2.9502 10.9941 2.92676 11.0352 2.90332 11.0938C2.85645 11.2227 2.83301 11.3633 2.83301 11.5156C2.83301 11.668 2.81543 11.8086 2.78027 11.9375C2.74512 12.0781 2.69238 12.2129 2.62207 12.3418C2.55176 12.4707 2.4873 12.5996 2.42871 12.7285C2.37012 12.8574 2.32324 12.9922 2.28809 13.1328C2.25293 13.2617 2.21191 13.3906 2.16504 13.5195C2.25879 13.4258 2.3584 13.3438 2.46387 13.2734C2.58105 13.1914 2.69238 13.1035 2.79785 13.0098C2.90332 12.9043 3.00293 12.793 3.09668 12.6758C3.19043 12.5586 3.2959 12.4531 3.41309 12.3594C3.51855 12.2656 3.62988 12.1836 3.74707 12.1133C3.87598 12.0312 3.99902 11.9492 4.11621 11.8672C4.30371 11.6094 4.46777 11.3457 4.6084 11.0762C4.67871 10.9473 4.7373 10.8008 4.78418 10.6367C4.84277 10.4727 4.91309 10.3262 4.99512 10.1973C5.06543 10.0684 5.15332 9.94531 5.25879 9.82812C5.37598 9.71094 5.47559 9.58789 5.55762 9.45898C5.65137 9.33008 5.72754 9.19531 5.78613 9.05469C5.85645 8.91406 5.93262 8.7793 6.01465 8.65039C6.17871 8.39258 6.36035 8.14648 6.55957 7.91211L6.64746 6.80469L7.28027 6.06641L7.36816 5.39844L7.80762 4.7832L7.86035 3.79883L7.56152 2.91992ZM22.0283 11.4805C22.0752 11.6562 22.0576 11.8086 21.9756 11.9375C21.8936 12.0547 21.7822 12.1602 21.6416 12.2539C21.5127 12.3477 21.3662 12.4355 21.2021 12.5176C21.0498 12.5879 20.9209 12.6699 20.8154 12.7637C20.2881 12.8809 19.8076 12.9688 19.374 13.0273C18.9521 13.0742 18.4834 13.1387 17.9678 13.2207C17.8154 13.2441 17.6689 13.2441 17.5283 13.2207C17.3994 13.1855 17.2646 13.1738 17.124 13.1855C17.042 13.1855 16.9658 13.1855 16.8955 13.1855C16.8252 13.1738 16.7549 13.1738 16.6846 13.1855C16.415 13.209 16.2393 13.3027 16.1572 13.4668C16.0752 13.6191 16.0049 13.8008 15.9463 14.0117C15.8994 14.2109 15.835 14.4043 15.7529 14.5918C15.6826 14.7676 15.5244 14.8906 15.2783 14.9609C15.2549 15.0195 15.2607 15.0723 15.2959 15.1191C15.3428 15.166 15.3779 15.207 15.4014 15.2422C15.2021 15.3008 15.0674 15.4062 14.9971 15.5586C14.9385 15.7109 14.8857 15.8633 14.8389 16.0156C14.792 16.168 14.7217 16.2969 14.6279 16.4023C14.5459 16.5078 14.3818 16.543 14.1357 16.5078C13.7725 16.8945 13.3447 17.2051 12.8525 17.4395C12.3604 17.6855 11.8506 17.8438 11.3232 17.9141C11.2295 17.8672 11.1357 17.8086 11.042 17.7383C10.96 17.668 10.8721 17.6035 10.7783 17.5449C10.6963 17.4863 10.6025 17.4395 10.4971 17.4043C10.4033 17.3809 10.292 17.3809 10.1631 17.4043C10.1514 17.1582 10.1045 16.9297 10.0225 16.7188C9.92871 16.5078 9.81152 16.3086 9.6709 16.1211C9.64746 15.9102 9.67676 15.7168 9.75879 15.541C9.8291 15.3535 9.90527 15.1719 9.9873 14.9961C10.0693 14.8203 10.1396 14.6445 10.1982 14.4688C10.2451 14.2812 10.2334 14.0703 10.1631 13.8359C10.2803 13.7656 10.3564 13.6836 10.3916 13.5898C10.4385 13.4961 10.4678 13.4023 10.4795 13.3086C10.5029 13.2031 10.5322 13.1094 10.5674 13.0273C10.6025 12.9336 10.6846 12.8574 10.8135 12.7988C10.7197 12.5176 10.7314 12.3125 10.8486 12.1836C10.9775 12.043 11.1299 11.9199 11.3057 11.8145C11.4814 11.709 11.6455 11.5918 11.7979 11.4629C11.9502 11.334 12.0088 11.1406 11.9736 10.8828C12.0439 10.8125 12.126 10.7539 12.2197 10.707C12.3135 10.6602 12.4014 10.6191 12.4834 10.584C12.5771 10.5371 12.665 10.4902 12.7471 10.4434C12.8291 10.3965 12.9053 10.332 12.9756 10.25C12.8936 10.1914 12.8525 10.1328 12.8525 10.0742C12.8643 10.0156 12.8818 9.95703 12.9053 9.89844C12.9287 9.82812 12.9521 9.75781 12.9756 9.6875C13.0107 9.61719 13.0107 9.54688 12.9756 9.47656C13.292 9.52344 13.5674 9.48242 13.8018 9.35352C14.0479 9.21289 14.2764 9.07227 14.4873 8.93164C14.71 8.79102 14.9326 8.69141 15.1553 8.63281C15.3779 8.57422 15.6357 8.64453 15.9287 8.84375C15.9521 8.92578 15.9873 9.04883 16.0342 9.21289C16.0928 9.36523 16.1455 9.52344 16.1924 9.6875C16.251 9.85156 16.3037 10.0098 16.3506 10.1621C16.3975 10.3145 16.4268 10.4258 16.4385 10.4961C16.4385 10.5547 16.4385 10.6484 16.4385 10.7773C16.4385 10.9062 16.4385 11.0469 16.4385 11.1992C16.4385 11.3398 16.4385 11.4746 16.4385 11.6035C16.4385 11.7324 16.4385 11.832 16.4385 11.9023C16.7783 12.1016 17.1182 12.2246 17.458 12.2715C17.7979 12.3066 18.1377 12.2246 18.4775 12.0254C18.6064 12.1426 18.7295 12.1777 18.8467 12.1309C18.9639 12.0723 19.0752 12.0078 19.1807 11.9375C19.2979 11.8672 19.415 11.832 19.5322 11.832C19.6494 11.8203 19.7666 11.9141 19.8838 12.1133C20.0479 11.9609 20.2178 11.8672 20.3936 11.832C20.5693 11.7852 20.751 11.7617 20.9385 11.7617C21.126 11.75 21.3076 11.7324 21.4834 11.709C21.6709 11.6855 21.8525 11.6094 22.0283 11.4805ZM15.2783 11.7793C15.2783 11.6035 15.3076 11.416 15.3662 11.2168C15.4248 11.0176 15.4717 10.8242 15.5068 10.6367C15.542 10.4375 15.5361 10.25 15.4893 10.0742C15.4541 9.89844 15.3428 9.74023 15.1553 9.59961C15.0264 9.66992 14.9209 9.76953 14.8389 9.89844C14.7568 10.0156 14.6748 10.1387 14.5928 10.2676C14.5107 10.3848 14.4111 10.4844 14.2939 10.5664C14.1885 10.6484 14.0479 10.6719 13.8721 10.6367C13.8135 10.7773 13.8135 10.8945 13.8721 10.9883C13.9307 11.0703 14.001 11.1523 14.083 11.2344C14.165 11.3047 14.2412 11.3809 14.3115 11.4629C14.3936 11.5449 14.4229 11.6504 14.3994 11.7793C14.4463 11.8145 14.5107 11.8496 14.5928 11.8848C14.6748 11.9082 14.7568 11.9258 14.8389 11.9375C14.9326 11.9375 15.0205 11.9258 15.1025 11.9023C15.1846 11.8789 15.2432 11.8379 15.2783 11.7793ZM15.1553 13.1855C14.9209 13.1855 14.7158 13.1328 14.54 13.0273C14.376 12.9102 14.2061 12.7812 14.0303 12.6406C13.8662 12.5 13.6904 12.3711 13.5029 12.2539C13.3271 12.125 13.1104 12.0488 12.8525 12.0254C12.7471 12.166 12.624 12.3008 12.4834 12.4297C12.3428 12.5469 12.2197 12.6758 12.1143 12.8164C12.0088 12.957 11.9326 13.1094 11.8857 13.2734C11.8506 13.4375 11.8799 13.625 11.9736 13.8359C11.7041 13.9648 11.5225 14.1523 11.4287 14.3984C11.335 14.6328 11.2705 14.8906 11.2354 15.1719C11.2119 15.4531 11.1885 15.7344 11.165 16.0156C11.1416 16.2969 11.0654 16.5488 10.9365 16.7715L11.3232 16.5078C11.3701 16.5312 11.4053 16.5664 11.4287 16.6133C11.4639 16.6602 11.4697 16.7129 11.4463 16.7715C11.54 16.6777 11.6455 16.6074 11.7627 16.5605C11.8799 16.502 11.9971 16.4609 12.1143 16.4375C12.2432 16.4023 12.3662 16.373 12.4834 16.3496C12.6123 16.3262 12.7354 16.291 12.8525 16.2441C13.1455 16.4082 13.3564 16.4434 13.4854 16.3496C13.6143 16.2559 13.7197 16.1152 13.8018 15.9277C13.8838 15.7402 13.9717 15.5469 14.0654 15.3477C14.1592 15.1367 14.3115 15.0078 14.5225 14.9609L14.3994 14.8379C14.5986 14.5918 14.7744 14.3398 14.9268 14.082C15.0908 13.8125 15.167 13.5137 15.1553 13.1855ZM32.417 11.9727C32.2881 12.1367 32.1885 12.3184 32.1182 12.5176C32.0479 12.7168 31.96 12.9043 31.8545 13.0801C31.7607 13.2559 31.6377 13.4023 31.4854 13.5195C31.3447 13.6367 31.1455 13.6895 30.8877 13.6777C30.7002 13.748 30.5596 13.877 30.4658 14.0645C30.3838 14.2402 30.3018 14.4219 30.2197 14.6094C30.1377 14.7852 30.0322 14.9316 29.9033 15.0488C29.7744 15.1543 29.5811 15.166 29.3232 15.084C28.9951 15.2246 28.6963 15.4121 28.4268 15.6465C28.1689 15.8691 27.9229 16.1035 27.6885 16.3496C27.6064 16.4316 27.5127 16.5371 27.4072 16.666C27.3018 16.7832 27.2021 16.8711 27.1084 16.9297C27.0264 16.9766 26.9443 16.9824 26.8623 16.9473C26.7803 16.9121 26.7041 16.877 26.6338 16.8418C26.5635 16.7949 26.4932 16.7715 26.4229 16.7715C26.3643 16.7715 26.3115 16.8242 26.2646 16.9297C26.3467 17.0938 26.3643 17.2051 26.3174 17.2637C26.2705 17.334 26.1943 17.3867 26.0889 17.4219C25.9834 17.457 25.8721 17.4863 25.7549 17.5098C25.6377 17.5332 25.5439 17.5742 25.4736 17.6328C25.333 17.7617 25.2334 17.9199 25.1748 18.1074C25.1162 18.2949 25.0635 18.4824 25.0166 18.6699C24.9697 18.8574 24.8994 19.0332 24.8057 19.1973C24.7236 19.373 24.583 19.5078 24.3838 19.6016C24.501 19.6836 24.5479 19.7656 24.5244 19.8477C24.5127 19.9297 24.4834 20.0117 24.4365 20.0938C24.3896 20.1875 24.3545 20.2754 24.3311 20.3574C24.3193 20.4395 24.3662 20.5215 24.4717 20.6035C24.2959 20.8262 24.1377 21.0664 23.9971 21.3242C23.8682 21.582 23.7393 21.8398 23.6104 22.0977C23.4814 22.3672 23.3408 22.625 23.1885 22.8711C23.0479 23.1289 22.8662 23.3574 22.6436 23.5566L22.6963 23.9785C22.5205 23.9316 22.4092 23.9375 22.3623 23.9961C22.3271 24.0547 22.3096 24.1367 22.3096 24.2422C22.3096 24.3477 22.3096 24.4531 22.3096 24.5586C22.3213 24.6758 22.2861 24.7637 22.2041 24.8223C22.1689 24.8691 22.1279 24.9043 22.0811 24.9277C22.0459 24.9512 22.0107 24.9805 21.9756 25.0156C21.6006 25.2969 21.3428 25.6543 21.2021 26.0879C21.1787 26.1582 21.1611 26.2285 21.1494 26.2988C21.1377 26.3691 21.1201 26.4453 21.0967 26.5273C21.0381 26.6914 20.9443 26.8613 20.8154 27.0371C20.6865 27.2129 20.5459 27.3945 20.3936 27.582C20.2412 27.7695 20.0947 27.9629 19.9541 28.1621C19.8135 28.373 19.7021 28.584 19.6201 28.7949C19.4326 28.7715 19.2861 28.7891 19.1807 28.8477C19.0635 28.918 18.9697 29.0059 18.8994 29.1113C18.8291 29.2285 18.7705 29.3516 18.7236 29.4805C18.6768 29.6094 18.6182 29.7207 18.5479 29.8145C18.4658 29.9199 18.3662 29.9961 18.249 30.043C18.1201 30.1016 17.9561 30.1016 17.7568 30.043L16.9658 30.7637C16.8252 30.6816 16.6904 30.6641 16.5615 30.7109C16.4209 30.7578 16.2861 30.8223 16.1572 30.9043C16.0166 30.9863 15.8818 31.0508 15.7529 31.0977C15.6123 31.1445 15.4658 31.127 15.3135 31.0449C15.2314 31.1387 15.1611 31.1855 15.1025 31.1855C15.0439 31.1973 14.9736 31.1504 14.8916 31.0449L14.6279 31.3262C14.4873 31.209 14.3174 31.0977 14.1182 30.9922C13.9072 30.8984 13.7139 30.7871 13.5381 30.6582C13.3623 30.541 13.2217 30.4004 13.1162 30.2363C13.0107 30.084 12.9932 29.8848 13.0635 29.6387C13.04 29.5684 13.0049 29.4922 12.958 29.4102C12.8994 29.3281 12.8525 29.2402 12.8174 29.1465C12.7822 29.0645 12.7588 28.9766 12.7471 28.8828C12.7354 28.8008 12.7588 28.7246 12.8174 28.6543C12.7119 28.4551 12.6768 28.25 12.7119 28.0391C12.7354 27.8398 12.7764 27.6406 12.835 27.4414C12.8936 27.2422 12.9404 27.043 12.9756 26.8438C13.0107 26.6445 12.9756 26.4453 12.8701 26.2461C13.0107 26.1406 13.1162 26.0059 13.1865 25.8418C13.2451 25.6777 13.3037 25.5078 13.3623 25.332C13.4092 25.1562 13.4619 24.9863 13.5205 24.8223C13.5791 24.6582 13.6787 24.5234 13.8193 24.418L13.8018 24.1367C14.3525 23.5508 14.9385 23.0117 15.5596 22.5195C16.1689 22.0391 16.8604 21.6816 17.6338 21.4473C17.7861 21.1777 17.9854 20.9785 18.2314 20.8496C18.4775 20.7324 18.7295 20.6211 18.9873 20.5156C19.2334 20.4219 19.4619 20.2988 19.6729 20.1465C19.8838 20.0059 20.042 19.7773 20.1475 19.4609C20.2061 19.5898 20.2646 19.6426 20.3232 19.6191C20.3818 19.6074 20.4404 19.5781 20.499 19.5312C20.5693 19.4961 20.6338 19.4668 20.6924 19.4434C20.751 19.4316 20.8096 19.4844 20.8682 19.6016C20.9854 19.25 21.1729 18.9688 21.4307 18.7578C21.7002 18.5469 21.9932 18.3594 22.3096 18.1953C22.6377 18.043 22.9658 17.8906 23.2939 17.7383C23.6221 17.5977 23.9092 17.4219 24.1553 17.2109C24.4131 17 24.6064 16.7422 24.7354 16.4375C24.8643 16.1211 24.8936 15.7168 24.8232 15.2246C24.9287 15.1543 24.999 15.0664 25.0342 14.9609C25.0693 14.8438 25.0928 14.7266 25.1045 14.6094C25.1279 14.4922 25.1572 14.3867 25.1924 14.293C25.2275 14.1992 25.3037 14.1348 25.4209 14.0996C25.3389 13.9707 25.2393 13.9121 25.1221 13.9238C25.0049 13.9355 24.8818 13.9707 24.7529 14.0293C24.6357 14.0879 24.5244 14.1465 24.4189 14.2051C24.3135 14.2637 24.2256 14.2754 24.1553 14.2402C24.1201 14.4043 24.0439 14.5215 23.9268 14.5918C23.8213 14.6621 23.7041 14.7266 23.5752 14.7852C23.4463 14.832 23.3115 14.8848 23.1709 14.9434C23.0303 15.002 22.9189 15.0957 22.8369 15.2246C22.7314 15.1777 22.6318 15.2012 22.5381 15.2949C22.4561 15.377 22.3682 15.4707 22.2744 15.5762C22.1924 15.6699 22.0986 15.7402 21.9932 15.7871C21.8877 15.834 21.7646 15.7871 21.624 15.6465C21.5537 15.834 21.4365 15.957 21.2725 16.0156C21.1201 16.0742 20.9502 16.1035 20.7627 16.1035C20.5752 16.1035 20.3818 16.0918 20.1826 16.0684C19.9951 16.0449 19.8252 16.0508 19.6729 16.0859L19.374 15.7871C19.3506 15.8457 19.3154 15.8926 19.2686 15.9277C19.21 15.9629 19.1514 15.9688 19.0928 15.9453C18.999 15.7461 18.9111 15.5352 18.8291 15.3125C18.7354 15.0781 18.6768 14.8496 18.6533 14.627C18.6182 14.3926 18.6357 14.1699 18.7061 13.959C18.7764 13.7363 18.917 13.543 19.1279 13.3789C19.4561 12.7812 19.8838 12.3125 20.4111 11.9727C20.4697 12.0195 20.5342 12.0371 20.6045 12.0254C20.6748 12.002 20.7451 11.9727 20.8154 11.9375C20.8975 11.8906 20.9736 11.8438 21.0439 11.7969C21.1143 11.7383 21.1787 11.7031 21.2373 11.6914C21.2725 11.5625 21.3369 11.4395 21.4307 11.3223C21.5361 11.2051 21.6475 11.0996 21.7646 11.0059C21.8936 10.9121 22.0225 10.8301 22.1514 10.7598C22.292 10.6777 22.4209 10.6074 22.5381 10.5488C22.7607 10.4434 22.9658 10.3145 23.1533 10.1621C23.3525 9.99805 23.5518 9.8457 23.751 9.70508C23.9502 9.55273 24.1553 9.42383 24.3662 9.31836C24.5771 9.21289 24.8174 9.16016 25.0869 9.16016L25.4033 9.44141C25.2041 9.55859 25.0283 9.70508 24.876 9.88086C24.7354 10.0449 24.5889 10.2148 24.4365 10.3906C24.2842 10.5547 24.1201 10.707 23.9443 10.8477C23.7686 10.9883 23.5518 11.082 23.2939 11.1289C23.083 11.5391 22.7959 11.8906 22.4326 12.1836C22.0811 12.4648 21.7178 12.7285 21.3428 12.9746C21.3428 13.1504 21.29 13.291 21.1846 13.3965C21.0791 13.502 20.9561 13.5957 20.8154 13.6777C20.6748 13.7598 20.5342 13.8359 20.3936 13.9062C20.2529 13.9648 20.1357 14.0469 20.042 14.1523C19.96 14.2461 19.9189 14.3691 19.9189 14.5215C19.9189 14.6621 19.9951 14.8496 20.1475 15.084C20.2881 15.0137 20.458 14.9668 20.6572 14.9434C20.8564 14.9199 21.0498 14.8906 21.2373 14.8555C21.4248 14.8086 21.5889 14.7441 21.7295 14.6621C21.8818 14.5684 21.9873 14.4277 22.0459 14.2402C22.21 14.0996 22.3857 14.0117 22.5732 13.9766C22.7607 13.9414 22.9541 13.9355 23.1533 13.959C23.54 13.5371 23.9268 13.1504 24.3135 12.7988C24.7119 12.4355 25.0869 12.0664 25.4385 11.6914C25.79 11.3164 26.1123 10.918 26.4053 10.4961C26.71 10.0625 26.9736 9.56445 27.1963 9.00195C27.4307 8.93164 27.6416 8.96094 27.8291 9.08984C28.0166 9.21875 28.1514 9.38281 28.2334 9.58203C28.21 9.72266 28.1689 9.85742 28.1104 9.98633C28.0635 10.1035 28.0166 10.2207 27.9697 10.3379C27.9346 10.4434 27.9053 10.5605 27.8818 10.6895C27.8701 10.8184 27.8936 10.9648 27.9521 11.1289C27.8584 11.1055 27.7822 11.1348 27.7236 11.2168C27.6768 11.2988 27.624 11.3691 27.5654 11.4277C27.6006 11.5801 27.5947 11.7207 27.5479 11.8496C27.501 11.9668 27.4424 12.084 27.3721 12.2012C27.3018 12.3066 27.2373 12.4238 27.1787 12.5527C27.1318 12.6816 27.1201 12.8223 27.1436 12.9746C26.9795 13.2793 26.8564 13.6016 26.7744 13.9414C26.7041 14.2695 26.6572 14.6035 26.6338 14.9434L26.9502 15.2246C27.1025 15.002 27.29 14.8438 27.5127 14.75C27.7471 14.6562 27.9814 14.5801 28.2158 14.5215C28.4502 14.4512 28.6787 14.375 28.9014 14.293C29.124 14.1992 29.3174 14.041 29.4814 13.8184C29.5518 13.4785 29.6982 13.2383 29.9209 13.0977C30.1436 12.9453 30.3779 12.8164 30.624 12.7109C30.8701 12.6055 31.1045 12.4883 31.3271 12.3594C31.5615 12.2188 31.7256 11.9961 31.8193 11.6914H32.2588C32.2354 11.75 32.2471 11.8027 32.2939 11.8496C32.3408 11.8965 32.3818 11.9375 32.417 11.9727ZM22.6963 19.7598C22.5791 19.8301 22.4502 19.8945 22.3096 19.9531C22.1689 20.0117 22.0283 20.0762 21.8877 20.1465C21.7471 20.2168 21.6182 20.2988 21.501 20.3926C21.3838 20.4863 21.2959 20.6035 21.2373 20.7441C21.1084 20.6738 20.9854 20.668 20.8682 20.7266C20.7627 20.7969 20.6572 20.873 20.5518 20.9551C20.4463 21.0488 20.335 21.125 20.2178 21.1836C20.1123 21.2422 19.9951 21.2363 19.8662 21.166C19.6436 21.3066 19.4326 21.459 19.2334 21.623C19.0225 21.7871 18.8115 21.9453 18.6006 22.0977C18.3896 22.2617 18.1729 22.4082 17.9502 22.5371C17.7158 22.6777 17.4697 22.7832 17.2119 22.8535C17.083 23.0645 16.9131 23.2285 16.7021 23.3457C16.4912 23.4746 16.2803 23.5977 16.0693 23.7148C15.8467 23.832 15.6475 23.9727 15.4717 24.1367C15.2959 24.3008 15.1846 24.5293 15.1377 24.8223C14.7744 25.0566 14.5283 25.3555 14.3994 25.7188C14.2588 26.0938 14.1826 26.4863 14.1709 26.8965C14.1592 27.3184 14.1768 27.7402 14.2236 28.1621C14.2705 28.5957 14.2939 28.9883 14.2939 29.3398C14.4463 29.5156 14.5986 29.6387 14.751 29.709C14.9033 29.7793 15.0615 29.8145 15.2256 29.8145C15.3896 29.8145 15.5596 29.791 15.7354 29.7441C15.8994 29.709 16.0811 29.6738 16.2803 29.6387C16.3271 29.4629 16.415 29.3457 16.5439 29.2871C16.6611 29.2402 16.79 29.2051 16.9307 29.1816C17.0596 29.1582 17.1826 29.123 17.2998 29.0762C17.4053 29.041 17.4639 28.9473 17.4756 28.7949L17.6338 28.9355C17.6455 28.748 17.6982 28.5898 17.792 28.4609C17.8857 28.3438 17.9971 28.2324 18.126 28.127C18.2549 28.0215 18.3955 27.9219 18.5479 27.8281C18.6885 27.7344 18.8115 27.6289 18.917 27.5117C18.8936 27.2891 18.9346 27.1016 19.04 26.9492C19.1455 26.7969 19.2627 26.6562 19.3916 26.5273C19.5205 26.3984 19.6377 26.2578 19.7432 26.1055C19.8369 25.9531 19.8721 25.7598 19.8486 25.5254C19.9658 25.4785 20.0479 25.4023 20.0947 25.2969C20.1416 25.1914 20.1885 25.0918 20.2354 24.998C20.2822 24.9043 20.3408 24.834 20.4111 24.7871C20.4932 24.7402 20.6162 24.752 20.7803 24.8223C20.6162 24.6934 20.5459 24.5938 20.5693 24.5234C20.6045 24.4531 20.6631 24.3887 20.7451 24.3301C20.8271 24.2832 20.9033 24.2246 20.9736 24.1543C21.0439 24.084 21.0439 23.9785 20.9736 23.8379C21.2549 23.7207 21.4365 23.5508 21.5186 23.3281C21.6006 23.1055 21.6592 22.8652 21.6943 22.6074C21.7412 22.3613 21.8057 22.1152 21.8877 21.8691C21.9697 21.6348 22.1514 21.4473 22.4326 21.3066C22.4092 21.0957 22.4443 20.9082 22.5381 20.7441C22.6436 20.5918 22.7432 20.4453 22.8369 20.3047C22.9424 20.1641 23.0127 20.0176 23.0479 19.8652C23.0947 19.7129 23.0537 19.5312 22.9248 19.3203L22.6963 19.7598ZM43.3506 11.4805C43.3975 11.6562 43.3799 11.8086 43.2979 11.9375C43.2158 12.0547 43.1045 12.1602 42.9639 12.2539C42.835 12.3477 42.6885 12.4355 42.5244 12.5176C42.3721 12.5879 42.2432 12.6699 42.1377 12.7637C41.6104 12.8809 41.1299 12.9688 40.6963 13.0273C40.2744 13.0742 39.8057 13.1387 39.29 13.2207C39.1377 13.2441 38.9912 13.2441 38.8506 13.2207C38.7217 13.1855 38.5869 13.1738 38.4463 13.1855C38.3643 13.1855 38.2881 13.1855 38.2178 13.1855C38.1475 13.1738 38.0771 13.1738 38.0068 13.1855C37.7373 13.209 37.5615 13.3027 37.4795 13.4668C37.3975 13.6191 37.3271 13.8008 37.2686 14.0117C37.2217 14.2109 37.1572 14.4043 37.0752 14.5918C37.0049 14.7676 36.8467 14.8906 36.6006 14.9609C36.5771 15.0195 36.583 15.0723 36.6182 15.1191C36.665 15.166 36.7002 15.207 36.7236 15.2422C36.5244 15.3008 36.3896 15.4062 36.3193 15.5586C36.2607 15.7109 36.208 15.8633 36.1611 16.0156C36.1143 16.168 36.0439 16.2969 35.9502 16.4023C35.8682 16.5078 35.7041 16.543 35.458 16.5078C35.0947 16.8945 34.667 17.2051 34.1748 17.4395C33.6826 17.6855 33.1729 17.8438 32.6455 17.9141C32.5518 17.8672 32.458 17.8086 32.3643 17.7383C32.2822 17.668 32.1943 17.6035 32.1006 17.5449C32.0186 17.4863 31.9248 17.4395 31.8193 17.4043C31.7256 17.3809 31.6143 17.3809 31.4854 17.4043C31.4736 17.1582 31.4268 16.9297 31.3447 16.7188C31.251 16.5078 31.1338 16.3086 30.9932 16.1211C30.9697 15.9102 30.999 15.7168 31.0811 15.541C31.1514 15.3535 31.2275 15.1719 31.3096 14.9961C31.3916 14.8203 31.4619 14.6445 31.5205 14.4688C31.5674 14.2812 31.5557 14.0703 31.4854 13.8359C31.6025 13.7656 31.6787 13.6836 31.7139 13.5898C31.7607 13.4961 31.79 13.4023 31.8018 13.3086C31.8252 13.2031 31.8545 13.1094 31.8896 13.0273C31.9248 12.9336 32.0068 12.8574 32.1357 12.7988C32.042 12.5176 32.0537 12.3125 32.1709 12.1836C32.2998 12.043 32.4521 11.9199 32.6279 11.8145C32.8037 11.709 32.9678 11.5918 33.1201 11.4629C33.2725 11.334 33.3311 11.1406 33.2959 10.8828C33.3662 10.8125 33.4482 10.7539 33.542 10.707C33.6357 10.6602 33.7236 10.6191 33.8057 10.584C33.8994 10.5371 33.9873 10.4902 34.0693 10.4434C34.1514 10.3965 34.2275 10.332 34.2979 10.25C34.2158 10.1914 34.1748 10.1328 34.1748 10.0742C34.1865 10.0156 34.2041 9.95703 34.2275 9.89844C34.251 9.82812 34.2744 9.75781 34.2979 9.6875C34.333 9.61719 34.333 9.54688 34.2979 9.47656C34.6143 9.52344 34.8896 9.48242 35.124 9.35352C35.3701 9.21289 35.5986 9.07227 35.8096 8.93164C36.0322 8.79102 36.2549 8.69141 36.4775 8.63281C36.7002 8.57422 36.958 8.64453 37.251 8.84375C37.2744 8.92578 37.3096 9.04883 37.3564 9.21289C37.415 9.36523 37.4678 9.52344 37.5146 9.6875C37.5732 9.85156 37.626 10.0098 37.6729 10.1621C37.7197 10.3145 37.749 10.4258 37.7607 10.4961C37.7607 10.5547 37.7607 10.6484 37.7607 10.7773C37.7607 10.9062 37.7607 11.0469 37.7607 11.1992C37.7607 11.3398 37.7607 11.4746 37.7607 11.6035C37.7607 11.7324 37.7607 11.832 37.7607 11.9023C38.1006 12.1016 38.4404 12.2246 38.7803 12.2715C39.1201 12.3066 39.46 12.2246 39.7998 12.0254C39.9287 12.1426 40.0518 12.1777 40.1689 12.1309C40.2861 12.0723 40.3975 12.0078 40.5029 11.9375C40.6201 11.8672 40.7373 11.832 40.8545 11.832C40.9717 11.8203 41.0889 11.9141 41.2061 12.1133C41.3701 11.9609 41.54 11.8672 41.7158 11.832C41.8916 11.7852 42.0732 11.7617 42.2607 11.7617C42.4482 11.75 42.6299 11.7324 42.8057 11.709C42.9932 11.6855 43.1748 11.6094 43.3506 11.4805ZM36.6006 11.7793C36.6006 11.6035 36.6299 11.416 36.6885 11.2168C36.7471 11.0176 36.7939 10.8242 36.8291 10.6367C36.8643 10.4375 36.8584 10.25 36.8115 10.0742C36.7764 9.89844 36.665 9.74023 36.4775 9.59961C36.3486 9.66992 36.2432 9.76953 36.1611 9.89844C36.0791 10.0156 35.9971 10.1387 35.915 10.2676C35.833 10.3848 35.7334 10.4844 35.6162 10.5664C35.5107 10.6484 35.3701 10.6719 35.1943 10.6367C35.1357 10.7773 35.1357 10.8945 35.1943 10.9883C35.2529 11.0703 35.3232 11.1523 35.4053 11.2344C35.4873 11.3047 35.5635 11.3809 35.6338 11.4629C35.7158 11.5449 35.7451 11.6504 35.7217 11.7793C35.7686 11.8145 35.833 11.8496 35.915 11.8848C35.9971 11.9082 36.0791 11.9258 36.1611 11.9375C36.2549 11.9375 36.3428 11.9258 36.4248 11.9023C36.5068 11.8789 36.5654 11.8379 36.6006 11.7793ZM36.4775 13.1855C36.2432 13.1855 36.0381 13.1328 35.8623 13.0273C35.6982 12.9102 35.5283 12.7812 35.3525 12.6406C35.1885 12.5 35.0127 12.3711 34.8252 12.2539C34.6494 12.125 34.4326 12.0488 34.1748 12.0254C34.0693 12.166 33.9463 12.3008 33.8057 12.4297C33.665 12.5469 33.542 12.6758 33.4365 12.8164C33.3311 12.957 33.2549 13.1094 33.208 13.2734C33.1729 13.4375 33.2021 13.625 33.2959 13.8359C33.0264 13.9648 32.8447 14.1523 32.751 14.3984C32.6572 14.6328 32.5928 14.8906 32.5576 15.1719C32.5342 15.4531 32.5107 15.7344 32.4873 16.0156C32.4639 16.2969 32.3877 16.5488 32.2588 16.7715L32.6455 16.5078C32.6924 16.5312 32.7275 16.5664 32.751 16.6133C32.7861 16.6602 32.792 16.7129 32.7686 16.7715C32.8623 16.6777 32.9678 16.6074 33.085 16.5605C33.2021 16.502 33.3193 16.4609 33.4365 16.4375C33.5654 16.4023 33.6885 16.373 33.8057 16.3496C33.9346 16.3262 34.0576 16.291 34.1748 16.2441C34.4678 16.4082 34.6787 16.4434 34.8076 16.3496C34.9365 16.2559 35.042 16.1152 35.124 15.9277C35.2061 15.7402 35.2939 15.5469 35.3877 15.3477C35.4814 15.1367 35.6338 15.0078 35.8447 14.9609L35.7217 14.8379C35.9209 14.5918 36.0967 14.3398 36.249 14.082C36.4131 13.8125 36.4893 13.5137 36.4775 13.1855Z" fill="currentColor"/>
</g>






//Skills
<!-- <g id="code">
<path fill-rule="evenodd" clip-rule="evenodd" d="M18.3125 42.0645L27.2623 6.6875L31.4375 7.87241L22.4878 43.3125L18.3125 42.0645Z" fill="#7572D5"/>
<path fill-rule="evenodd" clip-rule="evenodd" d="M13.5025 12.6875L16.5625 15.9278L7.99501 25.0001L16.5625 34.0721L13.5025 37.3125L1.875 25.0001L13.5025 12.6875Z" fill="#7572D5"/>
<path fill-rule="evenodd" clip-rule="evenodd" d="M36.4976 12.6875L33.4375 15.9278L42.0051 25.0001L33.4375 34.0721L36.4976 37.3125L48.125 25.0001L36.4976 12.6875Z" fill="#7572D5"/>
</g> -->

<!-- <g id="css">
<path d="M38.0508 10.8437L12.946 10.8377L13.3515 15.7547L32.6381 15.7577L32.1519 20.8502H19.5035L19.9608 25.6742H31.7358L31.0392 32.2806L25.4969 33.7886L19.8663 32.2701L19.508 28.3134H14.5359L15.0877 35.5411L25.4969 38.7341L35.7309 35.8652L38.0493 10.8452L38.0508 10.8437ZM5.49844 2.56873H45.4984L41.86 42.9999L25.4542 47.5687L9.13993 42.9968L5.49844 2.56873Z" fill="#7572D5"/>
</g> -->

<!-- <g id="figma">
<path d="M17.7083 4.16663C14.2565 4.16663 11.4583 6.96486 11.4583 10.4166C11.4583 13.8684 14.2565 16.6666 17.7083 16.6666H32.2916C35.7435 16.6666 38.5416 13.8684 38.5416 10.4166C38.5416 6.96486 35.7435 4.16663 32.2916 4.16663H17.7083Z" fill="#7572D5"/>
<path d="M32.2917 18.75C28.8398 18.75 26.0417 21.5481 26.0417 25C26.0417 28.4519 28.8398 31.25 32.2917 31.25C35.7436 31.25 38.5417 28.4519 38.5417 25C38.5417 21.5481 35.7436 18.75 32.2917 18.75Z" fill="#7572D5"/>
<path d="M11.4583 25C11.4583 21.5481 14.2565 18.75 17.7083 18.75H23.9583V31.25H17.7083C14.2565 31.25 11.4583 28.4519 11.4583 25Z" fill="#7572D5"/>
<path d="M17.7083 33.3334C14.2565 33.3334 11.4583 36.1315 11.4583 39.5834C11.4583 43.0352 14.2565 45.8334 17.7083 45.8334C21.1602 45.8334 23.9583 43.0352 23.9583 39.5834V33.3334H17.7083Z" fill="#7572D5"/>
</g> -->
<!-- 
<g id="styleComponents">
<path d="M37.2591 6.25L36.9888 7.64963C36.5708 10.3021 36.7221 11.061 37.8682 12.0454L38.9747 12.9546L37.8286 18.0305C37.1438 21.0588 36.3041 23.5968 35.7707 24.4308C35.313 25.1503 34.7796 26.2099 34.6642 26.7791C34.4732 27.4592 33.8245 28.1429 32.8334 28.7478C31.9576 29.2418 30.2385 30.5663 29.0203 31.6294C28.0472 32.4993 27.3769 33.0326 27.0129 33.2617L25.8235 34.196C25.4415 34.8046 25.2253 35.295 25.1424 35.6672C25.0595 36.0503 25.1063 36.3044 25.2289 36.4905C25.3478 36.6695 25.5532 36.7948 25.8343 36.8736C26.1671 36.951 26.5097 36.9788 26.8507 36.9559C27.6222 36.9035 28.3858 36.7691 29.1284 36.555C29.3807 36.487 29.5789 36.4225 29.7519 36.3653C30.0186 36.0395 30.6349 35.4238 31.7269 34.3535C34.6246 31.5149 35.731 29.9613 34.5885 30.3802C34.1669 30.5305 34.3579 30.1511 35.0823 29.3922C36.6104 27.9138 37.4862 25.6801 39.317 18.6748C40.7659 13.1443 40.7659 13.0656 41.8327 13.0656C42.3336 13.0656 43.75 13.1515 43.75 13.1515V6.25H40.4992H37.2591ZM24.4216 18.0806C23.3692 18.0735 21.1058 19.6664 14.3303 25.1611C14.0383 25.8519 14.0131 26.328 14.1464 26.6359C14.2329 26.8471 14.3915 26.9938 14.6114 27.1012C14.8276 27.2086 15.1087 27.2731 15.4187 27.2981C16.035 27.3518 16.763 27.2552 17.3504 27.1406L17.7469 27.0511C17.8826 26.8704 18.0608 26.7254 18.2659 26.6287C18.6839 26.3996 20.4391 24.8103 22.1943 23.1064C25.2829 19.9993 26.0073 18.5961 24.7495 18.1415C24.6463 18.1007 24.5326 18.08 24.4216 18.0806ZM32.336 20.2391C31.4098 20.2642 29.7411 21.3309 26.8831 23.5968C25.4487 24.753 24.5405 25.3759 24.0539 25.5047L22.1654 26.9867C21.4554 28.2753 21.3509 29.0736 21.5383 29.5139C21.5852 29.6225 21.6533 29.7208 21.7387 29.8031C21.8241 29.8855 21.925 29.9502 22.0357 29.9936C22.311 30.1015 22.6046 30.1562 22.9006 30.1546C23.608 30.1471 24.3112 30.0448 24.991 29.8504C25.3453 29.7559 25.6952 29.6461 26.0398 29.521L26.1443 29.4781L26.3353 29.3779C26.6957 28.9161 27.5246 28.0462 28.5626 27.044C31.8423 23.9011 33.5181 21.6674 33.1758 20.8333C33.0208 20.4288 32.7541 20.2248 32.336 20.2391ZM23.5998 24.1051C23.3331 24.1337 22.7349 24.5919 21.6573 25.5298C20.1003 26.8972 18.4028 27.6847 17.8154 27.3339C17.6788 27.3645 17.5419 27.3932 17.4045 27.4198C16.8062 27.5379 16.0602 27.6346 15.3934 27.5809C15.0793 27.562 14.7714 27.4855 14.4852 27.3554C14.2153 27.2328 13.9999 27.0164 13.8797 26.7468C13.7464 26.4247 13.7464 26.0238 13.8978 25.5119L11.5551 27.4234L6.2536 31.7798V38.8424L23.6251 25.2506C23.6217 25.1018 23.6411 24.9533 23.6827 24.8103C23.8161 24.3306 23.8089 24.0872 23.5998 24.1087V24.1051ZM31.0746 26.3925C30.8115 26.3925 30.3718 26.7612 29.669 27.5021C28.714 28.5152 27.2111 29.496 26.4146 29.6964L26.292 29.7609C26.1613 29.8145 26.0291 29.8646 25.8956 29.9112C25.6794 29.9828 25.3982 30.0687 25.0739 30.1546C24.4252 30.33 23.6179 30.4911 22.897 30.4732C22.5572 30.4728 22.2207 30.4072 21.9059 30.2799C21.6093 30.1585 21.3716 29.9275 21.2428 29.6356C21.0338 29.138 21.1167 28.44 21.5744 27.4485L6.25 39.4366V43.75H12.9823L27.2615 32.6103C27.6327 32.2022 28.1914 31.6438 28.9446 30.9457C30.9629 29.0879 31.4206 28.4472 31.4206 27.4986C31.4206 26.7612 31.3377 26.3889 31.0746 26.3889V26.3925ZM34.4732 33.3727L33.2514 34.5826C32.5667 35.2269 31.3449 36.0216 30.5088 36.3617L30.343 36.4333L30.3322 36.4512L30.2961 36.487C30.2637 36.512 30.2493 36.5156 30.2241 36.5263C29.8903 36.6518 29.5512 36.7629 29.2077 36.8592C28.4441 37.08 27.6586 37.218 26.8651 37.2709C26.4899 37.2948 26.1132 37.2622 25.7478 37.1743C25.4307 37.1049 25.1508 36.9213 24.9622 36.6588C24.7892 36.3939 24.7387 36.0395 24.836 35.6028C24.9134 35.2919 25.0284 34.9914 25.1784 34.7079L13.6563 43.75H28.9807L30.8115 41.6667C33.3271 38.7529 34.4732 36.6695 34.4732 34.8869V33.3727Z" fill="#7572D5"/>
</g> -->

<!-- <g id="typeScripts">
<path d="M5 25V45H45V5H5V25ZM37.235 23.4067C38.2517 23.66 39.025 24.1117 39.7367 24.8483C40.105 25.2417 40.6517 25.9583 40.695 26.1317C40.7083 26.1817 38.9683 27.3483 37.915 28.0033C37.8767 28.0283 37.7233 27.8633 37.5533 27.61C37.0367 26.86 36.4983 26.5367 35.6733 26.48C34.46 26.3967 33.68 27.0317 33.6867 28.0917C33.6756 28.3523 33.7343 28.6112 33.8567 28.8417C34.1233 29.3933 34.62 29.725 36.1733 30.3967C39.0383 31.63 40.2633 32.4417 41.025 33.5967C41.875 34.885 42.0667 36.9433 41.4883 38.4733C40.855 40.1367 39.28 41.2667 37.0633 41.64C36.3783 41.7617 34.7533 41.7433 34.0167 41.61C32.41 41.3233 30.8867 40.53 29.9467 39.4883C29.5783 39.0833 28.86 38.0217 28.905 37.9467C28.9233 37.92 29.0883 37.8183 29.2717 37.7117C29.4517 37.61 30.1233 37.2217 30.7583 36.8533L31.9083 36.1867L32.15 36.5433C32.4867 37.0567 33.2217 37.7617 33.6667 37.9967C34.9433 38.67 36.695 38.575 37.5583 37.8C37.7319 37.6538 37.8694 37.4693 37.9599 37.2612C38.0504 37.053 38.0915 36.8267 38.08 36.6C38.08 36.1367 38.0217 35.9333 37.78 35.5833C37.47 35.14 36.835 34.7667 35.0317 33.9833C32.9683 33.095 32.08 32.5433 31.2667 31.6667C30.759 31.0881 30.3841 30.4055 30.1683 29.6667C30.0167 29.1017 29.9783 27.685 30.0983 27.115C30.5233 25.12 32.0283 23.7317 34.2 23.3183C34.905 23.185 36.5433 23.235 37.235 23.4067ZM27.845 25.0767L27.8583 26.715H22.65V41.5083H18.9667V26.715H13.7633V25.1083C13.7633 24.2183 13.7817 23.475 13.8067 23.4583C13.8267 23.4317 16.995 23.4183 20.835 23.425L27.8267 23.445L27.845 25.0767Z" fill="#7572D5"/>
</g> -->

<!-- <g id="react">
<g clip-path="url(#clip0_20_1854)">
<path d="M47.8125 25C47.8125 22.0833 44.6875 19.375 39.4792 17.5L38.5417 17.1875V16.7708C39.6875 11.0416 38.8542 6.7708 36.25 5.2083C33.6458 3.6458 29.7917 5.10414 25.625 8.74997L25 9.37497L24.7917 9.16664H24.5833C20.3125 5.2083 16.1458 3.85414 13.5417 5.31247C10.9375 6.7708 10.2083 10.8333 11.25 16.1458C11.3596 16.4838 11.4295 16.8333 11.4583 17.1875L10.3125 17.6041C5.20833 19.375 2.1875 22.0833 2.1875 25C2.1875 27.9166 5.52083 30.8333 10.7292 32.7083L11.4583 32.9166C11.3296 33.2854 11.2593 33.672 11.25 34.0625C10.2083 39.2708 11.1458 43.2291 13.5417 44.6875C15.9375 46.1458 20.3125 44.7916 24.4792 41.1458L25.1042 40.625L25.9375 41.4583C28.8542 43.9583 31.7708 45.3125 34.0625 45.3125C34.8708 45.3309 35.6671 45.1137 36.3542 44.6875C38.9583 43.2291 39.8958 38.9583 38.75 33.5416V33.3333C38.705 33.1619 38.6702 32.988 38.6458 32.8125H38.9583C44.4792 30.8333 47.8125 28.0208 47.8125 25ZM44.7917 25C44.7917 26.25 42.5 28.4375 38.0208 29.8958H37.8125C37.2664 28.2202 36.6051 26.5843 35.8333 25C36.5625 23.3333 37.1875 21.6666 37.7083 20.1041L38.5417 20.3125C42.7083 21.7708 44.7917 23.75 44.7917 25ZM27.9167 39.1666L27.0833 38.5416C28.2761 37.2201 29.3891 35.8287 30.4167 34.375L35.7292 33.5416C35.8333 33.75 35.8333 33.9583 35.9375 34.0625C36.3087 35.9492 36.379 37.8829 36.1458 39.7916C35.9995 40.7045 35.5608 41.5452 34.8958 42.1875C33.8542 42.8125 31.0417 41.9791 27.9167 39.1666ZM26.5625 34.5833L25.1042 36.4583L23.4375 34.5833H26.5625ZM12.2917 20C12.8152 21.7174 13.4771 23.3895 14.2708 25C13.4765 26.646 12.8146 28.3528 12.2917 30.1041L11.6667 29.8958C9.84256 29.3201 8.1454 28.4008 6.66667 27.1875C6.28377 26.9455 5.95605 26.6257 5.7048 26.2488C5.45356 25.872 5.2844 25.4465 5.20833 25C5.20833 23.75 7.29167 21.7708 11.25 20.4166L12.2917 20ZM23.4375 15.4166L25 13.6458L26.5625 15.4166H23.4375ZM34.8958 7.81247C36.0417 8.43747 36.6667 11.5625 35.7292 16.1458C35.734 16.2022 35.7272 16.2591 35.7093 16.3128C35.6914 16.3665 35.6627 16.416 35.625 16.4583L30.4167 15.625C29.3891 14.1712 28.2761 12.7799 27.0833 11.4583L27.7083 10.9375C31.0417 8.0208 33.75 7.18747 34.8958 7.81247ZM17.5 18.8541L16.6667 20.2083L15.9375 21.5625C15.625 20.8333 15.4167 20.1041 15.1042 19.2708L17.5 18.8541ZM15.1042 30.7291C15.4167 30 15.625 29.2708 15.9375 28.4375L16.6667 29.7916L17.5 31.1458L15.1042 30.7291ZM32.5 25C31.9699 26.142 31.3788 27.2548 30.7292 28.3333C30.1042 29.4791 29.375 30.5208 28.75 31.5625H21.25C20.5208 30.4166 19.7917 29.375 19.2708 28.3333C18.6161 27.2577 18.0248 26.1447 17.5 25C18.0054 23.8458 18.5974 22.7315 19.2708 21.6666C19.8693 20.5874 20.5301 19.544 21.25 18.5416C23.7457 18.3334 26.2543 18.3334 28.75 18.5416C29.4792 19.5833 30.1042 20.625 30.7292 21.6666C31.4026 22.7315 31.9946 23.8458 32.5 25ZM33.3333 20.2083L32.5 18.8541L34.8958 19.375C34.6639 20.1208 34.3856 20.8514 34.0625 21.5625L33.3333 20.2083ZM32.5 31.1458L33.3333 29.7916L34.0625 28.3333L35 30.7291L32.5 31.1458ZM22.8125 11.3541H22.9167L19.5833 15.5208L14.375 16.3541C14.2708 16.0416 14.2708 15.8333 14.1667 15.5208C13.3333 11.25 13.9583 8.3333 15 7.81247C15.2766 7.63082 15.61 7.55672 15.9375 7.60414C17.3958 7.60414 19.8958 8.6458 22.7083 11.1458L22.8125 11.3541ZM14.1667 34.5833C14.1857 34.2617 14.256 33.9452 14.375 33.6458L19.6875 34.375C20.689 35.8481 21.8034 37.2412 23.0208 38.5416L22.8125 38.75L22.6042 38.9583C21.184 40.2738 19.5211 41.2999 17.7083 41.9791C17.3107 42.1874 16.875 42.3133 16.4275 42.3491C15.98 42.3849 15.5299 42.3299 15.1042 42.1875C13.9583 41.5625 13.3333 38.75 14.1667 34.5833Z" fill="#7572D5"/>
<path d="M25 20.4166C24.0894 20.3959 23.1932 20.647 22.4259 21.1379C21.6586 21.6287 21.0549 22.3371 20.692 23.1726C20.3291 24.008 20.2233 24.9327 20.3882 25.8285C20.5532 26.7243 20.9812 27.5507 21.6179 28.2022C22.2545 28.8536 23.0709 29.3006 23.9627 29.4861C24.8545 29.6715 25.7813 29.587 26.6249 29.2434C27.4685 28.8998 28.1905 28.3126 28.6989 27.5568C29.2073 26.801 29.4789 25.9108 29.4792 24.9999C29.4795 23.8022 29.0109 22.6519 28.1738 21.7953C27.3366 20.9387 26.1974 20.4438 25 20.4166Z" fill="#7572D5"/>
</g>
<defs>
<clipPath id="clip0_20_1854">
<rect width="50" height="50" fill="white"/>
</clipPath>
</defs>
</g> -->

//social-icons

<!-- <g id="instagram">
<path d="M15.6516 2.09998H5.34844C3.55687 2.09998 2.1 3.55628 2.1 5.34715V8.77799V15.6528C2.1 17.4437 3.55687 18.9 5.34844 18.9H15.6516C17.4431 18.9 18.9 17.4437 18.9 15.6528V8.77143V5.34058C18.8934 3.55628 17.4366 2.09998 15.6516 2.09998ZM16.5834 4.03516H16.9575V4.40251V6.88217L14.1159 6.88873L14.1094 4.04172L16.5834 4.03516ZM8.09812 8.77143C8.63625 8.03016 9.50906 7.53816 10.4934 7.53816C11.4778 7.53816 12.3506 8.0236 12.8887 8.77143C13.2431 9.25687 13.4466 9.85382 13.4466 10.4967C13.4466 12.1236 12.1209 13.4552 10.4869 13.4552C8.85281 13.4552 7.54031 12.1236 7.54031 10.4967C7.54031 9.85382 7.75031 9.25687 8.09812 8.77143ZM17.2594 15.6462C17.2594 16.5318 16.5375 17.2534 15.6516 17.2534H5.34844C4.4625 17.2534 3.74062 16.5318 3.74062 15.6462V8.77143H6.2475C6.03094 9.30279 5.90625 9.88662 5.90625 10.4967C5.90625 13.0288 7.96687 15.0887 10.5 15.0887C13.0331 15.0887 15.0937 13.0288 15.0937 10.4967C15.0937 9.88662 14.9691 9.30279 14.7525 8.77143H17.2594V15.6462Z" fill="currentColor"/>
</g> -->

<!-- <g id="linkedin">
<path d="M5.80637 7.88635H2.53296V18.3626H5.80637V7.88635Z" fill="currentColor"/>
<path d="M4.10079 2.94019C2.89376 2.94019 2.10001 3.72082 2.10001 4.75729C2.10001 5.77408 2.86752 6.57439 4.05487 6.57439H4.08111C5.31437 6.57439 6.08189 5.76752 6.07533 4.75729C6.04909 3.72082 5.30781 2.94019 4.10079 2.94019Z" fill="currentColor"/>
<path d="M14.7476 7.78796C12.8714 7.78796 11.6972 8.81131 11.4807 9.53291V7.88636H7.8006C7.84652 8.75883 7.8006 18.3626 7.8006 18.3626H11.4807V12.7014C11.4807 12.3799 11.4676 12.065 11.5594 11.842C11.8087 11.2123 12.3532 10.5563 13.3306 10.5563C14.6098 10.5563 15.1871 11.5271 15.1871 12.9441V18.3626H18.9V12.5374C18.9 9.29675 17.0764 7.78796 14.7476 7.78796Z" fill="currentColor"/>
</g> -->

<!-- <g id="telegram">
<path d="M18.9057 4.76449L16.3705 16.7208C16.1791 17.5644 15.6804 17.7745 14.9717 17.3772L11.1085 14.5305L9.24472 16.3235C9.0383 16.5299 8.86608 16.7022 8.46824 16.7022L8.74607 12.7681L15.9054 6.29885C16.2169 6.02162 15.8376 5.86741 15.4218 6.14524L6.57084 11.7186L2.76043 10.5257C1.93174 10.2671 1.91674 9.69701 2.93325 9.29917L17.837 3.55716C18.5271 3.29854 19.1308 3.71018 18.9057 4.76449Z" fill="currentColor"/>
</g> -->


<!-- <g id="vk">
<path d="M18.1696 13.9941C17.8038 13.5391 17.3881 13.1314 16.9861 12.737C16.8432 12.5968 16.6954 12.4518 16.5529 12.3076C16.1439 11.8932 16.129 11.7375 16.4529 11.2668C16.6769 10.9424 16.9145 10.6175 17.1442 10.3033C17.3526 10.0183 17.568 9.72351 17.7746 9.42777L17.817 9.36697C18.2117 8.80103 18.6199 8.21583 18.8372 7.50988C18.8936 7.32363 18.9528 7.04955 18.8174 6.82036C18.682 6.59137 18.4195 6.52151 18.2337 6.48888C18.1418 6.47273 18.0506 6.47053 17.9659 6.47053L15.3809 6.46861L15.3595 6.46842C14.9687 6.46842 14.7053 6.65927 14.5544 7.05194C14.4103 7.42713 14.252 7.82665 14.0714 8.20653C13.7119 8.96298 13.2554 9.83425 12.5948 10.5609L12.5669 10.5918C12.4889 10.6787 12.4005 10.777 12.3359 10.777C12.326 10.777 12.3152 10.7751 12.303 10.7711C12.1662 10.7159 12.0744 10.3726 12.0785 10.213C12.0786 10.2108 12.0786 10.2086 12.0786 10.2064L12.0768 7.1105C12.0768 7.09976 12.0761 7.08913 12.0747 7.07849C12.009 6.57522 11.8633 6.26195 11.3129 6.15026C11.2983 6.14724 11.2834 6.14575 11.2685 6.14575H8.5806C8.14268 6.14575 7.90138 6.33018 7.67456 6.60623C7.61334 6.68002 7.48589 6.83364 7.54906 7.01998C7.61315 7.20911 7.8212 7.24955 7.88894 7.26268C8.22522 7.32899 8.41477 7.54213 8.46846 7.91453C8.56219 8.56121 8.57371 9.25144 8.50471 10.0868C8.48547 10.3189 8.44742 10.4982 8.38471 10.6514C8.37015 10.6872 8.31849 10.8038 8.26582 10.8039C8.24908 10.8039 8.20067 10.7971 8.11248 10.7341C7.90397 10.5861 7.75142 10.3749 7.57357 10.114C6.96853 9.22796 6.46074 8.25191 6.02097 7.12938C5.85787 6.71615 5.55327 6.48481 5.16289 6.478C4.73395 6.47125 4.34504 6.46799 3.97413 6.46799C3.56886 6.46799 3.19314 6.47187 2.82625 6.47978C2.51217 6.48553 2.29492 6.58308 2.18061 6.76996C2.06611 6.95697 2.07356 7.20264 2.20276 7.50001C3.23702 9.88254 4.17478 11.6149 5.24345 13.1171C5.99225 14.1683 6.74333 14.8959 7.60686 15.4068C8.51664 15.9461 9.5362 16.2083 10.7237 16.2083C10.8583 16.2083 10.9975 16.2048 11.1379 16.198C11.8279 16.1632 12.0839 15.9044 12.1163 15.2082C12.1317 14.8525 12.1692 14.4793 12.338 14.1611C12.4445 13.9606 12.5439 13.9606 12.5765 13.9606C12.6394 13.9606 12.7174 13.9906 12.8011 14.0468C12.9513 14.1484 13.0801 14.2845 13.1857 14.4034C13.285 14.5163 13.3833 14.6304 13.4817 14.7446C13.6939 14.9909 13.9134 15.2456 14.1427 15.4871C14.6445 16.0162 15.1973 16.2488 15.8323 16.1983H18.2023C18.2073 16.1983 18.2124 16.1981 18.2175 16.1978C18.4536 16.1817 18.6582 16.0459 18.7786 15.8254C18.9279 15.5522 18.9249 15.2037 18.7706 14.893C18.5956 14.5415 18.3685 14.2413 18.1696 13.9941Z" fill="currentColor"/>
</g> -->



<!-- <g id="quote">
<path d="M13.5417 20.8333C13.0771 20.8333 12.6312 20.9042 12.1875 20.9688C12.3312 20.4854 12.4792 19.9938 12.7167 19.5521C12.9542 18.9104 13.325 18.3542 13.6937 17.7938C14.0021 17.1875 14.5458 16.7771 14.9458 16.2583C15.3646 15.7542 15.9354 15.4188 16.3875 15C16.8312 14.5625 17.4125 14.3438 17.875 14.0354C18.3583 13.7583 18.7792 13.4521 19.2292 13.3063L20.3521 12.8438L21.3396 12.4333L20.3292 8.39584L19.0854 8.69584C18.6875 8.79584 18.2021 8.9125 17.65 9.05209C17.0854 9.15625 16.4833 9.44167 15.8125 9.70209C15.15 9.99792 14.3833 10.1979 13.6708 10.6729C12.9542 11.1271 12.1271 11.5063 11.3979 12.1146C10.6917 12.7417 9.83958 13.2854 9.21041 14.0833C8.52291 14.8292 7.84375 15.6125 7.31666 16.5042C6.70625 17.3542 6.29166 18.2875 5.85416 19.2104C5.45833 20.1333 5.13958 21.0771 4.87916 21.9938C4.38541 23.8313 4.16458 25.5771 4.07916 27.0708C4.00833 28.5667 4.05 29.8104 4.1375 30.7104C4.16875 31.1354 4.22708 31.5479 4.26875 31.8333L4.32083 32.1833L4.375 32.1708C4.74554 33.9017 5.59855 35.4924 6.83534 36.7587C8.07213 38.0251 9.64217 38.9154 11.3638 39.3267C13.0855 39.738 14.8884 39.6535 16.5641 39.083C18.2397 38.5124 19.7196 37.4792 20.8325 36.1027C21.9454 34.7262 22.6459 33.0628 22.853 31.3048C23.06 29.5468 22.7651 27.7662 22.0024 26.1688C21.2396 24.5714 20.0403 23.2226 18.543 22.2784C17.0458 21.3342 15.3118 20.8332 13.5417 20.8333ZM36.4583 20.8333C35.9937 20.8333 35.5479 20.9042 35.1042 20.9688C35.2479 20.4854 35.3958 19.9938 35.6333 19.5521C35.8708 18.9104 36.2417 18.3542 36.6104 17.7938C36.9188 17.1875 37.4625 16.7771 37.8625 16.2583C38.2812 15.7542 38.8521 15.4188 39.3042 15C39.7479 14.5625 40.3292 14.3438 40.7917 14.0354C41.275 13.7583 41.6958 13.4521 42.1458 13.3063L43.2687 12.8438L44.2562 12.4333L43.2458 8.39584L42.0021 8.69584C41.6042 8.79584 41.1187 8.9125 40.5667 9.05209C40.0021 9.15625 39.4 9.44167 38.7292 9.70209C38.0688 10 37.3 10.1979 36.5875 10.675C35.8708 11.1292 35.0438 11.5083 34.3146 12.1167C33.6083 12.7438 32.7562 13.2875 32.1271 14.0833C31.4396 14.8292 30.7604 15.6125 30.2333 16.5042C29.6229 17.3542 29.2083 18.2875 28.7708 19.2104C28.375 20.1333 28.0562 21.0771 27.7958 21.9938C27.3021 23.8313 27.0812 25.5771 26.9958 27.0708C26.925 28.5667 26.9667 29.8104 27.0542 30.7104C27.0854 31.1354 27.1437 31.5479 27.1854 31.8333L27.2375 32.1833L27.2917 32.1708C27.6622 33.9017 28.5152 35.4924 29.752 36.7587C30.9888 38.0251 32.5588 38.9154 34.2805 39.3267C36.0022 39.738 37.8051 39.6535 39.4807 39.083C41.1564 38.5124 42.6363 37.4792 43.7492 36.1027C44.8621 34.7262 45.5626 33.0628 45.7696 31.3048C45.9766 29.5468 45.6817 27.7662 44.919 26.1688C44.1563 24.5714 42.957 23.2226 41.4597 22.2784C39.9624 21.3342 38.2284 20.8332 36.4583 20.8333Z" fill="#7572D5"/>

</g> -->

</svg>
